<svg width="20" height="20" viewBox="0 0 20 20" fill="none" xmlns="http://www.w3.org/2000/svg">
<path fill-rule="evenodd" clip-rule="evenodd" d="M11.1126 11.1638L17.2195 4.53586C17.2575 4.49639 17.287 4.44966 17.3064 4.39848C17.3258 4.3473 17.3346 4.29273 17.3323 4.23806C17.3301 4.18339 17.3167 4.12975 17.2932 4.08036C17.2696 4.03096 17.2363 3.98684 17.1952 3.95065L16.0233 2.77922C15.9477 2.707 15.8472 2.66669 15.7426 2.66669C15.638 2.66669 15.5374 2.707 15.4618 2.77922L8.82481 8.87879C8.78534 8.91664 8.75394 8.96208 8.73249 9.01236C8.71104 9.06264 8.69998 9.11673 8.69998 9.17139C8.69998 9.22605 8.71104 9.28014 8.73249 9.33042C8.75394 9.3807 8.78534 9.42614 8.82481 9.46399L10.5267 11.1638C10.5646 11.2033 10.6101 11.2346 10.6604 11.2561C10.7108 11.2775 10.7649 11.2885 10.8197 11.2885C10.8744 11.2885 10.9285 11.2775 10.9789 11.2561C11.0292 11.2346 11.0747 11.2033 11.1126 11.1638ZM7.61947 10.2612L9.74481 12.3911C9.87845 12.5131 9.96745 12.6762 9.99765 12.8546V13.2531C9.99902 13.6818 9.91557 14.1065 9.75211 14.5028C9.58865 14.8991 9.3484 15.2592 9.04516 15.5625C8.41031 16.1747 7.65412 16.6473 6.8253 16.9498C5.99648 17.2524 5.1134 17.3782 4.23294 17.3192C3.70913 17.3216 3.19939 17.1499 2.7839 16.8313C2.71774 16.7648 2.67673 16.6773 2.66784 16.584C2.65895 16.4906 2.68274 16.397 2.73515 16.3192C3.2273 15.5254 3.47909 14.6065 3.46019 13.673C3.43053 13.1773 3.50171 12.6807 3.66943 12.2132C3.83714 11.7457 4.09792 11.317 4.43603 10.9529C5.04736 10.3432 5.87615 10.0009 6.74009 10.0015C6.87298 9.9932 7.00627 9.9932 7.13916 10.0015C7.32261 10.0355 7.49067 10.1264 7.61947 10.2612Z" fill="white"/>
</svg>
