<svg width="20" height="20" viewBox="0 0 20 20" fill="none" xmlns="http://www.w3.org/2000/svg">
<path d="M4 6H5.33333H16" stroke="white" stroke-width="1.5" stroke-linecap="round" stroke-linejoin="round"/>
<path d="M15 6.20532V15.6C15 15.9713 14.8495 16.3274 14.5816 16.5899C14.3137 16.8525 13.9503 17 13.5714 17H6.42857C6.04969 17 5.68633 16.8525 5.41842 16.5899C5.15051 16.3274 5 15.9713 5 15.6V6.05164M7.14286 5.8V4.4C7.14286 4.0287 7.29337 3.6726 7.56128 3.41005C7.82919 3.1475 8.19255 3 8.57143 3H11.4286C11.8075 3 12.1708 3.1475 12.4387 3.41005C12.7066 3.6726 12.8571 4.0287 12.8571 4.4V5.8" stroke="white" stroke-width="1.5" stroke-linecap="round" stroke-linejoin="round"/>
</svg>
